# xmcd CD database file
#
# Track frame offsets:
#	150
#	16508
#	30931
#	43755
#	56745
#	71305
#	89094
#	101862
#	121559
#	139755
#	156849
#	175058
#	192199
#	205844
#	220631
#	236151
#	252862
#
# Disc length: 3758 seconds
#
# Revision: 0
# Processed by: cddbd v1.5.1PL0 Copyright (c) Steve Scherf et al.
# Submitted via: CDex 1.51
#
DISCID=e00eac11
DTITLE=Various Artist - Promo Only Canada January 2004 Country Radio
DYEAR=2004
DGENRE=Country
TTITLE0=Darryl Worley - I Will Hold My Ground (Single Version)
TTITLE1=Martina McBride - In My Daughter's Eyes
TTITLE2=Danni - Drivin'
TTITLE3=Susan Ashton - She Is
TTITLE4=Doc Walker - Get Up
TTITLE5=Gary Allan - Songs About Rain
TTITLE6=Mark Wills - That's A Woman
TTITLE7=Cross Canadian Ragweed - Constantly
TTITLE8=The Warren Brothers - Sell A Lot Of Beer
TTITLE9=Tracy Lawrence - Paint Me A Birmingham
TTITLE10=Amy Dalley - I Think You're So Beautiful
TTITLE11=Keith Urban - You'll Think Of Me
TTITLE12=Reckless Kelly - Nobody's Girl
TTITLE13=James Taylor and Alison Krauss - How's The World Treating You
TTITLE14=Hank Williams Jr. - I'm One Of You
TTITLE15=Billy Currington - Walk A Little Straighter
TTITLE16=Tim McGraw - Real Good Man - The Ride (Live from the One Band Show North American Tour) *
EXTD=YEAR: 2004
EXTT0=
EXTT1=
EXTT2=
EXTT3=
EXTT4=
EXTT5=
EXTT6=
EXTT7=
EXTT8=
EXTT9=
EXTT10=
EXTT11=
EXTT12=
EXTT13=
EXTT14=
EXTT15=
EXTT16=
PLAYORDER=
